<svg xmlns="http://www.w3.org/2000/svg" style="display:none"><symbol id="stats" viewBox="0 0 48 23">
  <title>
    stats
  </title>
  <desc>
    Created with Sketch.
  </desc>
    <g>
          <path d="M42.9 0C40.1 0 37.8 2.3 37.8 5.2 37.8 6.2 38.1 7.2 38.6 8L33.1 13.5C32.3 13 31.4 12.7 30.3 12.7 29.3 12.7 28.3 13 27.5 13.6L21.9 8C22.4 7.2 22.7 6.2 22.7 5.2 22.7 2.3 20.5 0 17.7 0 14.8 0 12.6 2.3 12.6 5.2 12.6 6.2 12.9 7.2 13.4 8L7.9 13.5C7.1 13 6.1 12.7 5.1 12.7 2.3 12.7 0 15 0 17.8 0 20.7 2.3 23 5.1 23 7.9 23 10.2 20.7 10.2 17.8 10.2 16.8 9.9 15.8 9.4 15L14.9 9.5C15.7 10 16.6 10.3 17.7 10.3 18.7 10.3 19.6 10 20.4 9.5L26 15.1C25.5 15.9 25.3 16.8 25.3 17.8 25.3 20.7 27.5 23 30.3 23 33.2 23 35.4 20.7 35.4 17.8 35.4 16.8 35.1 15.8 34.6 15L40.1 9.5C40.9 10 41.9 10.3 42.9 10.3 45.7 10.3 48 8 48 5.2 48 2.3 45.7 0 42.9 0ZM5.1 20.9C3.4 20.9 2.1 19.5 2.1 17.8 2.1 16.2 3.4 14.8 5.1 14.8 6.7 14.8 8.1 16.2 8.1 17.8 8.1 19.5 6.7 20.9 5.1 20.9ZM17.7 8.2C16 8.2 14.7 6.8 14.7 5.2 14.7 3.5 16 2.1 17.7 2.1 19.3 2.1 20.6 3.5 20.6 5.2 20.6 6.8 19.3 8.2 17.7 8.2ZM30.3 20.9C28.7 20.9 27.4 19.5 27.4 17.8 27.4 16.2 28.7 14.8 30.3 14.8 32 14.8 33.3 16.2 33.3 17.8 33.3 19.5 32 20.9 30.3 20.9ZM42.9 8.2C41.3 8.2 39.9 6.8 39.9 5.2 39.9 3.5 41.3 2.1 42.9 2.1 44.6 2.1 45.9 3.5 45.9 5.2 45.9 6.8 44.6 8.2 42.9 8.2Z"/>
          <path d="M16.7 12.3C16.3 11.9 15.7 11.9 15.3 12.3L13.3 14.3C12.9 14.7 12.9 15.3 13.3 15.7 13.5 15.9 13.7 16 14 16 14.2 16 14.5 15.9 14.7 15.7L16.7 13.7C17.1 13.3 17.1 12.7 16.7 12.3Z"/>
          <path d="M35.7 6.3C35.3 5.9 34.7 5.9 34.3 6.3L32.3 8.3C31.9 8.7 31.9 9.3 32.3 9.7 32.5 9.9 32.7 10 33 10 33.2 10 33.5 9.9 33.7 9.7L35.7 7.7C36.1 7.3 36.1 6.7 35.7 6.3Z"/>
        </g>
</symbol></svg>