<svg xmlns="http://www.w3.org/2000/svg" width="48" height="41" viewBox="0 0 48 41">
  <title>
    ac-white
  </title>
  <desc>
    Created with Sketch.
  </desc>
    <g>
      <path d="M36 13.1C36 12.5 35.6 12.1 35 12.1L5 12.1C4.4 12.1 4 12.5 4 13.1L4 17.1C4 17.6 4.4 18.1 5 18.1L35 18.1C35.6 18.1 36 17.6 36 17.1L36 13.1ZM34 16.1L6 16.1 6 14.1 34 14.1 34 16.1Z"/>
      <path d="M5 8.1L27 8.1C27.6 8.1 28 7.6 28 7.1 28 6.5 27.6 6.1 27 6.1L5 6.1C4.4 6.1 4 6.5 4 7.1 4 7.6 4.4 8.1 5 8.1Z"/>
      <circle cx="34" cy="6.1" r="2"/>
      <path d="M28 25.1C28 24.5 27.6 24.1 27 24.1 26.4 24.1 26 24.5 26 25.1 26 26.9 26.6 27.8 27.2 28.6 27.6 29.3 28 29.9 28 31.1 28 31.6 28.4 32.1 29 32.1 29.6 32.1 30 31.6 30 31.1 30 29.3 29.4 28.3 28.8 27.5 28.4 26.8 28 26.3 28 25.1Z"/>
      <path d="M11 24.1C10.4 24.1 10 24.5 10 25.1 10 26.3 9.6 26.8 9.2 27.5 8.6 28.3 8 29.3 8 31.1 8 31.6 8.4 32.1 9 32.1 9.6 32.1 10 31.6 10 31.1 10 29.9 10.4 29.3 10.8 28.6 11.4 27.8 12 26.9 12 25.1 12 24.5 11.6 24.1 11 24.1Z"/>
      <path d="M19 24.1C18.4 24.1 18 24.5 18 25.1L18 31.1C18 31.6 18.4 32.1 19 32.1 19.6 32.1 20 31.6 20 31.1L20 25.1C20 24.5 19.6 24.1 19 24.1Z"/>
      <path d="M42 24.1L41 24.1 41 23.1C41 22.5 40.6 22.1 40 22.1 39.4 22.1 39 22.5 39 23.1L39 24.1 38 24.1C37.4 24.1 37 24.5 37 25.1 37 25.6 37.4 26.1 38 26.1L39 26.1 39 27.1C39 27.6 39.4 28.1 40 28.1 40.6 28.1 41 27.6 41 27.1L41 26.1 42 26.1C42.6 26.1 43 25.6 43 25.1 43 24.5 42.6 24.1 42 24.1Z"/>
      <path d="M42 32.1L38 32.1C37.4 32.1 37 32.5 37 33.1 37 33.6 37.4 34.1 38 34.1L42 34.1C42.6 34.1 43 33.6 43 33.1 43 32.5 42.6 32.1 42 32.1Z"/>
      <path d="M44 18.1L40 18.1 40 4.1C40 1.9 38.2 0.1 36 0.1L4 0.1C1.8 0.1 0 1.9 0 4.1L0 18.1C0 20.3 1.8 22.1 4 22.1L32 22.1 32 32.1C32 36.5 35.6 40.1 40 40.1 44.4 40.1 48 36.5 48 32.1L48 22.1C48 19.9 46.2 18.1 44 18.1ZM32.6 20.1L4 20.1C2.9 20.1 2 19.2 2 18.1L2 4.1C2 3 2.9 2.1 4 2.1L36 2.1C37.1 2.1 38 3 38 4.1L38 18.1 36 18.1C34.5 18.1 33.3 18.9 32.6 20.1ZM46 32.1C46 35.4 43.3 38.1 40 38.1 36.7 38.1 34 35.4 34 32.1L34 22.1C34 21 34.9 20.1 36 20.1L44 20.1C45.1 20.1 46 21 46 22.1L46 32.1 46 32.1Z"/>
    </g>
</svg>
