<svg xmlns="http://www.w3.org/2000/svg" width="39" height="48" viewBox="0 0 39 48">
  <title>
    fridge
  </title>
  <desc>
    Created with Sketch.
  </desc>
    <g fill="#333">
      <path d="M29.6 5.6L28 5.6C27.6 5.6 27.2 6 27.2 6.4 27.2 6.8 27.6 7.2 28 7.2L29.6 7.2C30 7.2 30.4 6.8 30.4 6.4 30.4 6 30 5.6 29.6 5.6Z"/>
      <path d="M6.4 17.6L4 17.6 4 28.8 13.6 28.8 13.6 17.6 11.2 17.6 6.4 17.6ZM9.6 19.2L9.6 21.6 8 21.6 8 19.2 9.6 19.2ZM12 19.2L12 27.2 5.6 27.2 5.6 19.2 6.4 19.2 6.4 23.2 11.2 23.2 11.2 19.2 12 19.2Z"/>
      <path d="M16 16C15.6 16 15.2 16.4 15.2 16.8L15.2 29.6C15.2 30 15.6 30.4 16 30.4 16.4 30.4 16.8 30 16.8 29.6L16.8 16.8C16.8 16.4 16.4 16 16 16Z"/>
      <path d="M22.4 16C22 16 21.6 16.4 21.6 16.8L21.6 29.6C21.6 30 22 30.4 22.4 30.4 22.8 30.4 23.2 30 23.2 29.6L23.2 16.8C23.2 16.4 22.8 16 22.4 16Z"/>
      <path d="M12 36C12 36.4 12.4 36.8 12.8 36.8L25.6 36.8C26 36.8 26.4 36.4 26.4 36 26.4 35.6 26 35.2 25.6 35.2L12.8 35.2C12.4 35.2 12 35.6 12 36Z"/>
      <path d="M36.7 0L1.7 0C0.8 0 0 0.8 0 1.7L0 32 0 33.6 0 45.7C0 46.9 1.1 48 2.3 48L36.1 48C37.3 48 38.4 46.9 38.4 45.7L38.4 33.6 38.4 32 38.4 1.7C38.4 0.8 37.6 0 36.7 0ZM1.6 1.7C1.6 1.7 1.7 1.6 1.7 1.6L18.4 1.6 18.4 32 1.6 32 1.6 1.7ZM36.8 45.7C36.8 46.1 36.5 46.4 36.1 46.4L2.3 46.4C1.9 46.4 1.6 46.1 1.6 45.7L1.6 33.6 36.8 33.6 36.8 45.7ZM20 32L20 1.6 36.7 1.6C36.7 1.6 36.8 1.7 36.8 1.7L36.8 32 20 32Z"/>
    </g>
</svg>
