<svg xmlns="http://www.w3.org/2000/svg" width="41" height="48" viewBox="0 0 41 48">
  <title>
    kettle
  </title>
  <desc>
    Created with Sketch.
  </desc>
    <g fill="#333">
      <path d="M10.9 5C11.7 4.1 12 2.5 11.7 1.3 11.5 0.8 11.8 0.2 12.4 0 12.9-0.1 13.5 0.2 13.6 0.7 14.2 2.6 13.7 4.8 12.5 6.3 11.4 7.7 11.1 10.1 12.4 11.3 12.8 11.6 12.8 12.3 12.4 12.7 12.2 12.9 12 13 11.7 13 11.4 13 11.2 12.9 11 12.8 8.8 10.8 9.2 7.2 10.9 5ZM17.6 6.2L24.4 6.2C24.9 6.2 25.4 5.8 25.4 5.2 25.4 4.6 24.9 4.2 24.4 4.2L17.6 4.2C17.1 4.2 16.6 4.6 16.6 5.2 16.6 5.8 17.1 6.2 17.6 6.2ZM40.5 16L40.5 24.2C40.5 28.3 37.4 31.7 33.4 32.2L33.4 41.4 34.5 41.4C35 41.4 35.5 41.8 35.5 42.4L35.5 46.9C35.5 47.5 35 48 34.5 48L1.1 48C0.5 48 0.1 47.5 0.1 46.9L0.1 42.4C0.1 41.8 0.5 41.4 1.1 41.4L1.9 41.4C1.5 32.5 2.4 22.6 5.9 19.3L0.3 11.6C0.1 11.4 0.1 11.2 0.1 11L0.1 9C0.1 8.7 0.2 8.5 0.4 8.3 0.6 8.1 0.8 8 1.1 8L5.3 8C5.5 6.9 6 5.9 6.6 5 7.4 4.1 7.7 2.5 7.4 1.3 7.2 0.8 7.5 0.2 8.1 0 8.6-0.1 9.2 0.2 9.3 0.7 9.9 2.6 9.4 4.8 8.2 6.3 7.7 7 7.3 8 7.3 8.9 7.3 8.9 7.3 9 7.3 9 7.3 9 7.3 9.1 7.3 9.1 7.3 10 7.5 10.7 8.1 11.3 8.5 11.6 8.5 12.3 8.2 12.7 7.8 13.1 7.1 13.1 6.7 12.8 6 12.1 5.5 11.1 5.3 10L2.1 10 2.1 10.6 8.1 18.9C8.2 18.9 8.2 19 8.2 19 8.3 19.1 8.3 19.2 8.3 19.3 8.4 19.5 8.4 19.6 8.3 19.8 8.3 19.8 8.3 19.8 8.3 19.8 8.3 19.8 8.3 19.8 8.3 19.8 8.3 19.9 8.2 20 8.1 20.2 8.1 20.3 8 20.3 7.9 20.4 7.8 20.4 7.8 20.4 7.8 20.4 6.5 21.1 5.4 23.6 4.7 27.2 4 31 3.7 35.9 4 41.4L31.4 41.4 31.4 31.3C31.4 30.7 31.8 30.2 32.4 30.2 35.7 30.2 38.4 27.5 38.4 24.2L38.4 16C38.4 12.7 35.7 10 32.4 10L25.4 10 25.4 32.2C25.4 34 23.9 35.4 22.2 35.4 20.4 35.4 18.9 34 18.9 32.2L18.9 13.1C18.9 12.5 19.4 12 19.9 12 20.5 12 21 12.5 21 13.1L21 32.2C21 32.9 21.5 33.4 22.2 33.4 22.8 33.4 23.3 32.9 23.3 32.2L23.3 10 14.5 10 14.5 8 32.4 8C36.9 8 40.5 11.6 40.5 16ZM33.4 43.4L2.1 43.4 2.1 45.9 33.4 45.9 33.4 43.4ZM32.4 26.3C33 26.3 33.4 25.9 33.4 25.3L33.4 14.9C33.4 14.4 33 13.9 32.4 13.9 31.8 13.9 31.4 14.4 31.4 14.9L31.4 25.3C31.4 25.9 31.8 26.3 32.4 26.3Z"/>
    </g>
</svg>
