<svg xmlns="http://www.w3.org/2000/svg" width="48" height="45" viewBox="0 0 48 45">
  <title>
    key
  </title>
  <desc>
    Created with Sketch.
  </desc>
    <g fill="#333">
      <path d="M47.7 20.4L24.7 0.2C24.3-0.1 23.7-0.1 23.3 0.2L0.3 20.4C0 20.6-0.1 21.1 0.1 21.5 0.2 21.9 0.6 22.1 1 22.1L6 22.1 6 43.2C6 43.8 6.4 44.2 7 44.2L41 44.2C41.6 44.2 42 43.8 42 43.2L42 22.1 47 22.1C47.4 22.1 47.8 21.9 47.9 21.5 48.1 21.1 48 20.6 47.7 20.4ZM41 20.1C40.4 20.1 40 20.6 40 21.1L40 42.2 8 42.2 8 21.1C8 20.6 7.6 20.1 7 20.1L3.7 20.1 24 2.3 44.3 20.1 41 20.1Z"/>
      <circle cx="28.2" cy="22.6" r="1.9"/>
      <path d="M20.3 23.2C20.3 24 20.5 24.8 20.7 25.5L14.4 31.8C14.2 32 14.1 32.3 14.1 32.6L14.1 35.7C14.1 36.2 14.6 36.7 15.2 36.7L18.3 36.7C18.5 36.7 18.8 36.6 19 36.4L25.3 30.1C26 30.4 26.8 30.5 27.6 30.5 31.6 30.5 34.8 27.2 34.8 23.2 34.8 19.3 31.6 16 27.6 16 23.6 16 20.3 19.3 20.3 23.2ZM27.6 18.1C30.4 18.1 32.8 20.4 32.8 23.2 32.8 26.1 30.4 28.4 27.6 28.4 26.9 28.4 26.1 28.3 25.5 28 25.1 27.8 24.6 27.9 24.3 28.2L17.8 34.6 16.2 34.6 16.2 33 22.7 26.5C23 26.2 23 25.8 22.9 25.4 22.6 24.7 22.4 24 22.4 23.2 22.4 20.4 24.7 18.1 27.6 18.1Z"/>
  </g>
</svg>
