<svg xmlns="http://www.w3.org/2000/svg" width="40" height="48" viewBox="0 0 40 48">
  <title>
    music
  </title>
  <desc>
    Created with Sketch.
  </desc>

        <g fill="#333">
          <path d="M12.3 28.4C13 27.4 13.3 26.4 13.3 25.3L13.3 4.4C14.2 5.5 15.3 6.5 16.5 7.1 18.7 8.1 18.8 9.7 18.7 11.4 18.7 11.5 18.7 11.6 18.7 11.7 18.7 12.3 19.2 12.8 19.8 12.8 19.8 12.8 19.8 12.8 19.8 12.8 20.4 12.8 20.9 12.3 20.9 11.7 20.9 11.7 20.9 11.6 20.9 11.5 21 10.1 21.1 6.9 17.5 5.1 15.7 4.3 13.7 1.6 13.1 0.6 13.1 0.6 13.1 0.6 13.1 0.6 13.1 0.6 13 0.6 13 0.6 13 0.6 13 0.6 13 0.6 13 0.5 13 0.5 13 0.5 12.9 0.4 12.8 0.4 12.7 0.3 12.7 0.3 12.7 0.3 12.7 0.3 12.7 0.3 12.7 0.3 12.6 0.3 12.5 0.2 12.4 0.2 12.3 0.2 12.3 0.2 12.3 0.2 12.3 0.2 12.3 0.2 12.2 0.2 12.2 0.2 12.2 0.1 12.2 0.1 12.2 0.1 12.2 0.1 12.1 0.1 12.1 0.1 12.1 0.1 12.1 0.1 12.1 0.1 12.1 0.1 12.1 0.2 12 0.2 12 0.2 12 0.2 12 0.2 12 0.2 12 0.2 11.9 0.2 11.9 0.2 11.9 0.2 11.9 0.2 11.9 0.2 11.8 0.2 11.8 0.2 11.8 0.2 11.8 0.2 11.8 0.2 11.8 0.2 11.7 0.2 11.7 0.2 11.7 0.2 11.7 0.2 11.7 0.3 11.7 0.3 11.6 0.3 11.6 0.3 11.6 0.3 11.6 0.3 11.6 0.3 11.6 0.3 11.6 0.3 11.5 0.3 11.5 0.3 11.5 0.3 11.5 0.3 11.5 0.3 11.5 0.4 11.5 0.4 11.5 0.4 11.5 0.4 11.4 0.4 11.4 0.4 11.4 0.4 11.4 0.4 11.3 0.5 11.2 0.6 11.2 0.7 11.2 0.7 11.2 0.7 11.2 0.7 11.2 0.7 11.2 0.7 11.2 0.8 11.1 0.9 11.1 1 11.1 1.1 11.1 1.1 11.1 1.1 11 1.1 11 1.1 11 1.2 11 1.2 11 1.2 11 1.2 11 1.2 11 1.2 11 1.2 11 1.3L11 21.4C10 20.7 8.8 20.3 7.4 20.3 6.6 20.3 5.8 20.5 5 20.7 1.5 21.8-0.6 25.1 0.3 28 1.1 30.2 3.3 31.7 6 31.7 6.8 31.7 7.6 31.5 8.4 31.3 10 30.8 11.4 29.7 12.3 28.4ZM10.5 27.2C9.9 28.1 8.9 28.8 7.7 29.2 7.1 29.4 6.6 29.5 6 29.5 4.2 29.5 2.9 28.6 2.5 27.4 1.9 25.6 3.3 23.6 5.7 22.8 6.2 22.6 6.8 22.5 7.4 22.5 9.1 22.5 10.5 23.4 10.9 24.7 11.2 25.5 11 26.4 10.5 27.2Z"/>
          <path d="M39.7 34.5L39.7 14.9C39.7 14.9 39.7 14.9 39.7 14.9L39.7 10.8C39.7 10.8 39.7 10.8 39.7 10.8 39.7 10.7 39.7 10.7 39.7 10.7 39.7 10.7 39.7 10.7 39.7 10.7 39.7 10.6 39.7 10.6 39.7 10.6 39.7 10.6 39.7 10.6 39.7 10.6 39.7 10.5 39.7 10.5 39.7 10.5 39.7 10.5 39.7 10.5 39.7 10.4 39.7 10.4 39.7 10.4 39.7 10.4 39.7 10.4 39.7 10.4 39.6 10.3 39.6 10.3 39.6 10.3 39.6 10.3 39.6 10.3 39.6 10.3 39.6 10.3 39.6 10.3 39.6 10.3 39.6 10.2 39.6 10.2 39.6 10.2 39.6 10.2 39.6 10.2 39.6 10.2 39.5 10.2 39.5 10.1 39.5 10.1 39.5 10.1 39.5 10.1 39.5 10.1 39.5 10.1 39.5 10.1 39.5 10 39.4 10 39.4 10 39.4 10 39.4 10 39.4 10 39.4 10 39.4 9.9 39.4 9.9 39.3 9.9 39.3 9.9 39.3 9.9 39.3 9.9 39.3 9.9 39.3 9.9 39.3 9.9 39.2 9.9 39.2 9.8 39.2 9.8 39.2 9.8 39.2 9.8 39.2 9.8 39.1 9.8 39.1 9.8 39.1 9.8 39.1 9.8 39.1 9.8 39.1 9.8 39 9.8 39 9.7 39 9.7 39 9.7 39 9.7 39 9.7 38.9 9.7 38.9 9.7 38.9 9.7 38.9 9.7 38.9 9.7 38.9 9.7 38.8 9.7 38.8 9.7 38.8 9.7 38.8 9.7 38.8 9.7 38.8 9.7 38.7 9.7 38.7 9.7 38.7 9.7 38.7 9.7 38.7 9.7 38.6 9.7 38.6 9.7 38.6 9.7 38.6 9.7 38.6 9.7 38.6 9.7 38.6 9.7 38.5 9.7 38.5 9.7 38.5 9.7 38.5 9.7 38.5 9.7 38.5 9.7 38.4 9.7 38.4 9.7 38.4 9.7 38.4 9.7 38.4 9.7 38.4 9.7 38.4 9.7 38.3 9.7 38.3 9.7 38.3 9.7 38.3 9.7 38.3 9.7 38.3 9.7 38.2 9.7 38.2 9.8 38.2 9.8 38.2 9.8 38.2 9.8 38.2 9.8L22.5 16.7C22.5 16.7 22.5 16.7 22.4 16.7L22.4 16.7C22.4 16.7 22.4 16.7 22.4 16.7 22.4 16.8 22.4 16.8 22.3 16.8 22.3 16.8 22.3 16.8 22.3 16.8 22.3 16.8 22.3 16.8 22.3 16.8 22.2 16.8 22.2 16.9 22.2 16.9 22.2 16.9 22.2 16.9 22.2 16.9 22.2 16.9 22.1 16.9 22.1 16.9 22.1 17 22.1 17 22.1 17 22.1 17 22.1 17 22 17 22 17 22 17 22 17.1 22 17.1 22 17.1 22 17.1 22 17.1 22 17.1 22 17.1 21.9 17.2 21.9 17.2 21.9 17.2 21.9 17.2 21.9 17.2 21.9 17.2 21.9 17.2 21.9 17.3 21.9 17.3 21.9 17.3 21.9 17.3 21.9 17.3 21.9 17.3 21.8 17.4 21.8 17.4 21.8 17.4 21.8 17.4 21.8 17.4 21.8 17.4 21.8 17.5 21.8 17.5 21.8 17.5 21.8 17.5 21.8 17.5 21.8 17.6 21.8 17.6 21.8 17.6 21.8 17.6 21.8 17.6 21.8 17.6 21.8 17.7 21.8 17.7 21.8 17.7 21.8 17.7 21.8 17.7 21.8 17.7L21.8 17.8C21.8 17.8 21.8 17.8 21.8 17.8L21.8 21.9C21.8 21.9 21.8 21.9 21.8 21.9L21.8 37.7C20.8 37 19.5 36.6 18.1 36.6 17.3 36.6 16.5 36.8 15.7 37 14.1 37.5 12.7 38.6 11.8 39.9 10.9 41.3 10.6 42.9 11.1 44.3 11.8 46.5 14 48 16.7 48 17.5 48 18.3 47.9 19.1 47.6 20.8 47.1 22.2 46.1 23.1 44.7 23.8 43.7 24.1 42.5 24 41.4L24 22.6 37.5 16.6 37.5 30.8C36.5 30.1 35.3 29.8 33.9 29.8 33.1 29.8 32.3 29.9 31.5 30.1 28 31.3 25.9 34.5 26.8 37.5 27.6 39.7 29.8 41.1 32.5 41.1 33.3 41.1 34.1 41 34.9 40.7 36.5 40.2 37.9 39.2 38.8 37.8 39.5 36.8 39.8 35.6 39.7 34.5ZM18.5 45.5C17.9 45.7 17.3 45.8 16.7 45.8 15 45.8 13.6 44.9 13.2 43.7 12.9 42.9 13.1 42 13.7 41.1 14.3 40.2 15.2 39.5 16.4 39.1 17 38.9 17.6 38.8 18.1 38.8 19.9 38.8 21.3 39.7 21.7 41 21.7 41.1 21.8 41.3 21.8 41.5L21.8 41.9C21.8 41.9 21.8 41.9 21.8 41.9 21.7 42.5 21.5 43 21.2 43.5 20.6 44.4 19.6 45.1 18.5 45.5ZM24 20.2L24 18.5 37.5 12.5 37.5 14.2 24 20.2ZM34.2 38.6C33.6 38.8 33.1 38.9 32.5 38.9 30.8 38.9 29.4 38.1 29 36.8 28.4 35 29.8 33 32.2 32.2 32.7 32.1 33.3 32 33.9 32 35.6 32 37 32.8 37.4 34.1 37.5 34.3 37.5 34.4 37.5 34.6L37.5 34.8C37.5 34.9 37.5 34.9 37.5 35 37.5 35.5 37.3 36.1 37 36.6 36.4 37.5 35.4 38.2 34.2 38.6Z"/>
        </g>

</svg>
