<svg xmlns="http://www.w3.org/2000/svg" width="48" height="46" viewBox="0 0 48 46">
  <title>
    router
  </title>
  <desc>
    Created with Sketch.
  </desc>

        <g fill="#333">
          <path d="M42.6 22.4L15.4 22.4 15.4 10.6C17.1 10 18.1 8.2 17.7 6.4 17.3 4.6 15.6 3.4 13.8 3.6 12 3.8 10.6 5.4 10.6 7.2 10.6 8.8 11.7 10.2 13.3 10.7L13.3 22.4 6.8 22.4C3.9 22.4 1.5 24.8 1.5 27.8L1.5 38.7C1.5 39.3 1.9 39.8 2.5 39.8L6 39.8 6 44.3C6 44.9 6.5 45.4 7.1 45.4L41.8 45.4C42.4 45.4 42.9 44.9 42.9 44.3L42.9 39.8 46.9 39.8C47.5 39.8 47.9 39.3 47.9 38.7L47.9 27.8C47.9 24.8 45.5 22.4 42.6 22.4ZM12.7 7.2C12.7 6.4 13.4 5.7 14.2 5.7 15 5.7 15.6 6.4 15.6 7.2 15.6 8 15 8.6 14.2 8.6 13.4 8.6 12.7 8 12.7 7.2ZM40.8 43.2L8.1 43.2 8.1 39.8 40.8 39.8 40.8 43.2ZM45.8 37.7L3.6 37.7 3.6 27.8C3.6 26 5 24.6 6.8 24.6L42.6 24.6C44.4 24.6 45.8 26 45.8 27.8L45.8 37.7Z"/>
          <path d="M10.6 28C10 28 9.6 28.5 9.6 29.1L9.6 33.1C9.6 33.7 10 34.2 10.6 34.2 11.2 34.2 11.7 33.7 11.7 33.1L11.7 29.1C11.7 28.5 11.2 28 10.6 28Z"/>
          <path d="M37 27.3C35.1 27.3 33.5 28.9 33.5 30.8 33.5 32.8 35.1 34.3 37 34.3 38.9 34.3 40.4 32.8 40.5 30.9 40.5 30.9 40.5 30.8 40.5 30.8 40.5 28.9 39 27.3 37 27.3ZM37 32.2C36.3 32.2 35.7 31.6 35.7 30.8 35.7 30.1 36.3 29.5 37 29.5 37.8 29.5 38.4 30.1 38.4 30.8 38.3 31.6 37.7 32.2 37 32.2L37 32.2Z"/>
          <path d="M16.9 28C16.3 28 15.8 28.5 15.8 29.1L15.8 33.1C15.8 33.7 16.3 34.2 16.9 34.2 17.4 34.2 17.9 33.7 17.9 33.1L17.9 29.1C17.9 28.5 17.4 28 16.9 28Z"/>
          <path d="M7.5 11.5C8 11.5 8.4 11.2 8.5 10.8 8.7 10.4 8.6 10 8.3 9.7 6.8 8.2 6.8 5.7 8.3 4.2 8.6 4 8.7 3.6 8.6 3.2 8.5 2.8 8.2 2.5 7.8 2.4 7.4 2.3 7 2.4 6.8 2.7 4.4 5.1 4.4 8.8 6.8 11.2 7 11.4 7.2 11.5 7.5 11.5Z"/>
          <path d="M3.4 13.8C3.9 13.8 4.3 13.5 4.4 13.1 4.6 12.7 4.5 12.2 4.2 11.9 1.4 9.2 1.4 4.7 4.2 1.8 4.5 1.6 4.6 1.2 4.5 0.8 4.4 0.4 4.1 0.2 3.7 0.1 3.3 0 3 0.1 2.7 0.3 -0.9 4-0.9 9.9 2.7 13.4 2.9 13.6 3.2 13.8 3.4 13.8Z"/>
        </g>

</svg>
