<svg xmlns="http://www.w3.org/2000/svg" width="48" height="48" viewBox="0 0 48 48">
  <title>
    thermal
  </title>
  <desc>
    Created with Sketch.
  </desc>

        <g fill="#333">
          <path d="M25.1 17C25.1 15.4 23.7 14 22 14 20.4 14 19 15.4 19 17L19 29.3C18.3 30 18 31 18 31.9 18 34.1 19.8 35.9 22 35.9 24.3 35.9 26.1 34.1 26.1 31.9 26.1 31 25.8 30 25.1 29.3L25.1 17ZM22 33.9C20.9 33.9 20 33 20 31.9 20 31.4 20.2 30.9 20.7 30.5 20.9 30.3 21 30 21 29.7L21 17C21 16.5 21.5 16 22 16 22.6 16 23.1 16.5 23.1 17L23.1 29.7C23.1 30 23.2 30.3 23.4 30.5 23.8 30.9 24.1 31.4 24.1 31.9 24.1 33 23.2 33.9 22 33.9Z"/>
          <path d="M44 26L40 26 40 22 43 22C43.4 22 43.8 21.8 44 21.4 44.1 21 44 20.6 43.7 20.3L22.7 0.3C22.3-0.1 21.7-0.1 21.3 0.3L0.3 20.3C0 20.6-0.1 21 0.1 21.4 0.2 21.8 0.6 22 1 22L4 22 4 41C4 41.6 4.4 42 5 42L32.3 42C33.2 45.4 36.3 48 40 48 44.4 48 48 44.4 48 40L48 30C48 27.8 46.2 26 44 26ZM32 30L32 40 6 40 6 21C6 20.4 5.6 20 5 20L3.5 20 22 2.4 40.5 20 39 20C38.4 20 38 20.4 38 21L38 26 36 26C33.8 26 32 27.8 32 30ZM46 40C46 43.3 43.3 46 40 46 36.7 46 34 43.3 34 40L34 30C34 28.9 34.9 28 36 28L44 28C45.1 28 46 28.9 46 30L46 40 46 40Z"/>
          <path d="M41.8 32L40.8 32 40.8 31C40.8 30.5 40.4 30 39.8 30 39.3 30 38.9 30.5 38.9 31L38.9 32 37.9 32C37.3 32 36.9 32.4 36.9 33 36.9 33.5 37.3 34 37.9 34L38.9 34 38.9 34.9C38.9 35.5 39.3 35.9 39.8 35.9 40.4 35.9 40.8 35.5 40.8 34.9L40.8 34 41.8 34C42.3 34 42.8 33.5 42.8 33 42.8 32.4 42.3 32 41.8 32Z"/>
          <path d="M41.8 39.8L37.9 39.8C37.3 39.8 36.9 40.3 36.9 40.8 36.9 41.4 37.3 41.8 37.9 41.8L41.8 41.8C42.3 41.8 42.8 41.4 42.8 40.8 42.8 40.3 42.3 39.8 41.8 39.8Z"/>
        </g>

</svg>
