<svg xmlns="http://www.w3.org/2000/svg" width="14" height="14" viewBox="0 0 14 14">
  <title>
    cross
  </title>
  <desc>
    Created with Sketch.
  </desc>
    <g>
        <path d="M8.1 7L12.8 2.3C13.1 2 13.1 1.5 12.8 1.2 12.5 0.9 12 0.9 11.7 1.2L7 5.9 2.3 1.2C2 0.9 1.5 0.9 1.2 1.2 0.9 1.5 0.9 2 1.2 2.3L5.9 7 1.2 11.7C0.9 12 0.9 12.5 1.2 12.8 1.4 12.9 1.6 13 1.8 13 1.9 13 2.1 12.9 2.3 12.8L7 8.1 11.7 12.8C11.9 12.9 12.1 13 12.2 13 12.4 13 12.6 12.9 12.8 12.8 13.1 12.5 13.1 12 12.8 11.7L8.1 7Z"/>
    </g>
</svg>
